<?xml version="1.0" encoding="UTF-8"?>
<!DOCTYPE svg PUBLIC "-//W3C//DTD SVG 1.1//EN" "http://www.w3.org/Graphics/SVG/1.1/DTD/svg11.dtd">

<svg xmlns="http://www.w3.org/2000/svg" xml:space="preserve" width="75mm" height="75mm" version="1.1" style="shape-rendering:geometricPrecision; text-rendering:geometricPrecision; image-rendering:optimizeQuality; fill-rule:evenodd; clip-rule:evenodd"
viewBox="0 0 7500 7500"
 xmlns:xlink="http://www.w3.org/1999/xlink"
 xmlns:dc="http://purl.org/dc/elements/1.1/"
 xmlns:cc="http://creativecommons.org/ns#"
 xmlns:rdf="http://www.w3.org/1999/02/22-rdf-syntax-ns#"
 xmlns:svg="http://www.inkscape.org/namespaces/inkscape"
 xmlns:sodipodi="http://sodipodi.sourceforge.net/DTD/sodipodi-0.dtd"
 xmlns:inkscape="http://www.inkscape.org/namespaces/inkscape"
 inkscape:version="0.48.4 r9939"
 sodipodi:docname="New document 4">
 <defs>
  <style type="text/css">
   <![CDATA[
    .fil0 {fill:#ED1C24}
   ]]>
  </style>
 </defs>
 <g id="Layer_1" transform="translate(3750, 2000)">
  <metadata id="CorelCorpID_0Corel-Layer"/>
  <g id="g4203">
   <path id="path3461" class="fil0" d="M2584 1345c6,-2 14,2 22,13 0,0 0,0 362,352 21,21 21,53 0,69 0,0 0,0 -362,358 -8,10 -16,13 -22,10 -6,-3 -10,-13 -10,-26l0 -753c0,-13 4,-21 10,-23z"/>
   <path id="path3463" class="fil0" d="M1965 758l26 0 24 10c0,0 0,0 373,369 16,21 10,36 -16,36 0,0 0,0 -155,0 -26,0 -48,22 -48,48 0,0 0,0 0,274 0,26 -21,47 -53,47 0,0 0,0 -271,0 -27,0 -48,-21 -48,-47 0,0 0,0 0,-274 0,-26 -21,-48 -48,-48l-165 0c-27,0 -32,-15 -16,-36 0,0 0,0 373,-369l24 -10 0 0z"/>
   <path id="path3465" class="fil0" d="M1382 1337c6,4 10,13 10,26l0 768c0,14 -4,22 -10,24 -7,3 -16,0 -27,-8 0,0 0,0 -367,-368 -21,-16 -21,-48 0,-69 0,0 0,0 367,-363 11,-10 20,-13 27,-10l0 0z"/>
   <path id="path3467" class="fil0" d="M1845 1942c0,0 0,0 271,0 32,0 54,21 54,48 0,0 0,0 0,289 0,32 21,53 47,53l144 0c27,0 37,15 16,31 0,0 0,0 -362,363 -11,11 -24,16 -37,16 -13,0 -27,-5 -37,-16 0,0 0,0 -362,-363 -22,-16 -11,-31 15,-31 0,0 0,0 155,0 27,0 48,-21 48,-53 0,0 0,0 0,-289 0,-27 21,-48 48,-48l0 0z"/>
  </g>
 </g>
</svg>
